<?xml version="1.0" standalone="no"?>
<!DOCTYPE svg PUBLIC "-//W3C//DTD SVG 20010904//EN"
 "http://www.w3.org/TR/2001/REC-SVG-20010904/DTD/svg10.dtd">
<svg version="1.0" xmlns="http://www.w3.org/2000/svg"
 width="559.000000pt" height="559.000000pt" viewBox="0 0 559.000000 559.000000"
 preserveAspectRatio="xMidYMid meet">
<metadata>
Created by potrace 1.14, written by Peter Selinger 2001-2017
</metadata>
<g transform="translate(0.000000,559.000000) scale(0.100000,-0.100000)"
fill="#000000" stroke="none">
<path d="M2698 4195 c-2 -2 -30 -5 -63 -9 -33 -3 -70 -8 -81 -10 -12 -3 -39
-7 -60 -10 -61 -10 -236 -72 -316 -111 -176 -88 -377 -251 -488 -395 -183
-238 -298 -549 -296 -805 l1 -70 46 1 46 2 7 -85 c3 -47 13 -120 22 -162 9
-42 17 -83 19 -91 2 -8 8 -27 14 -42 6 -16 8 -28 5 -28 -4 0 -2 -6 3 -12 5 -7
18 -35 28 -63 10 -27 28 -69 40 -91 14 -26 20 -52 18 -71 -9 -55 49 -80 84
-36 16 20 2 55 -26 68 -43 19 -138 254 -156 385 -4 25 -9 61 -13 80 -4 19 -7
60 -7 90 l0 55 45 1 c25 1 47 2 50 3 3 1 5 15 5 33 -1 33 9 127 20 193 9 54
72 239 100 296 13 25 51 86 83 135 160 239 412 413 702 485 188 47 545 28 590
-31 23 -30 66 -34 84 -8 29 41 -17 93 -62 69 -16 -8 -37 -7 -84 4 -216 49
-439 35 -661 -41 -163 -57 -295 -137 -424 -257 -218 -204 -358 -499 -378 -797
-2 -19 -3 -39 -4 -43 -1 -5 -16 -7 -33 -5 -31 3 -33 6 -32 38 3 76 15 171 28
214 8 26 12 46 10 46 -9 0 62 183 99 254 64 124 168 261 261 345 15 14 39 36
53 49 111 102 442 264 507 249 12 -3 31 -8 43 -10 46 -11 72 72 28 90 -22 8
-65 -6 -65 -21 0 -11 -62 -38 -115 -51 -5 -1 -23 -7 -38 -13 -16 -7 -31 -12
-33 -12 -6 0 -117 -55 -164 -82 -90 -49 -212 -146 -293 -232 -195 -207 -314
-466 -349 -766 l-12 -100 -33 0 -32 0 5 78 c6 79 11 127 14 127 1 0 3 9 4 20
18 138 102 345 204 500 64 97 273 324 299 325 6 0 13 4 15 9 2 4 34 29 72 55
121 81 335 175 430 190 21 4 41 8 45 10 3 2 29 7 56 11 28 4 64 9 80 11 36 6
267 5 310 0 17 -2 38 -4 47 -5 10 -1 25 -9 35 -19 29 -30 51 -34 73 -12 23 23
25 39 7 65 -11 14 -20 16 -43 10 -33 -9 -59 -9 -241 -3 -73 3 -134 4 -135 3z
m392 -40 c0 -8 -4 -15 -9 -15 -13 0 -22 16 -14 24 11 11 23 6 23 -9z m-547
-91 c9 -9 -4 -35 -14 -28 -5 3 -9 12 -9 20 0 14 12 19 23 8z m632 -154 c-5 -8
-11 -8 -17 -2 -6 6 -7 16 -3 22 5 8 11 8 17 2 6 -6 7 -16 3 -22z m-1480 -1790
c-5 -8 -11 -8 -17 -2 -6 6 -7 16 -3 22 5 8 11 8 17 2 6 -6 7 -16 3 -22z"/>
<path d="M2746 4114 c-9 -8 -16 -24 -16 -34 0 -42 55 -65 81 -34 25 31 229 4
394 -52 98 -32 215 -90 215 -105 0 -7 -10 -27 -21 -46 -12 -19 -20 -35 -18
-37 2 -1 38 -26 79 -54 163 -112 304 -276 390 -454 41 -85 78 -201 106 -338 2
-14 6 -70 8 -125 7 -204 -31 -380 -120 -558 -76 -152 -204 -318 -250 -323 -34
-3 -54 -22 -54 -50 0 -33 36 -56 66 -42 24 11 28 20 24 47 -1 8 18 35 43 60
61 64 145 182 190 267 49 96 105 265 121 371 14 87 14 301 1 372 -36 193 -126
400 -233 541 -48 64 -212 220 -271 258 -58 38 -59 38 -45 65 8 15 18 27 23 27
17 0 127 -80 194 -141 221 -201 363 -471 404 -769 10 -70 10 -259 0 -330 -7
-51 -12 -76 -32 -167 -4 -18 -14 -33 -21 -33 -18 0 -36 -37 -29 -60 7 -22 37
-34 65 -25 24 8 37 50 21 69 -8 9 -5 36 10 102 15 65 22 132 24 249 3 139 0
175 -20 270 -40 188 -84 299 -174 445 -98 157 -220 282 -403 411 -20 14 -21
19 -10 43 6 14 17 26 23 26 12 0 129 -83 182 -128 48 -42 136 -133 166 -172
14 -19 28 -37 32 -40 18 -16 95 -141 133 -217 70 -140 113 -276 134 -416 14
-102 6 -384 -14 -467 -3 -14 -8 -36 -11 -50 -20 -110 -112 -316 -199 -445 -73
-109 -76 -113 -104 -117 -30 -4 -53 -44 -39 -70 6 -12 21 -18 43 -18 35 0 46
13 46 52 0 12 17 44 38 72 140 188 244 435 268 636 3 25 7 56 9 70 3 14 5 70
5 125 2 483 -231 920 -637 1193 -34 23 -63 42 -65 42 -2 0 -14 -20 -27 -44
l-24 -44 -66 33 c-113 57 -229 96 -356 120 -27 5 -166 19 -190 20 -5 0 -18 8
-27 18 -22 21 -42 22 -62 1z m47 -40 c-7 -18 -19 -18 -26 0 -7 18 1 26 18 19
8 -2 11 -11 8 -19z m1241 -1696 c-3 -4 -11 -5 -20 -1 -11 4 -12 8 -3 20 10 11
14 11 20 1 4 -6 6 -15 3 -20z m-433 -473 c-1 -15 -24 -12 -29 3 -3 9 2 13 12
10 10 -1 17 -7 17 -13z m247 -43 c2 -7 -3 -12 -12 -12 -9 0 -16 7 -16 16 0 17
22 14 28 -4z"/>
<path d="M2650 3863 c-309 -49 -571 -216 -753 -481 l-37 -55 25 -13 c14 -7 29
-15 34 -19 5 -3 -8 -44 -30 -90 -22 -47 -42 -93 -44 -103 -2 -9 -10 -46 -19
-82 -8 -36 -18 -94 -22 -130 -4 -36 -13 -74 -21 -86 -29 -45 25 -86 58 -43 16
22 16 25 2 41 -33 37 6 252 72 395 18 40 37 73 40 73 4 0 20 -8 36 -17 15 -9
30 -15 32 -12 2 2 20 29 40 59 117 177 334 321 551 366 253 53 527 -10 735
-170 67 -52 84 -71 88 -99 7 -43 50 -47 70 -8 10 21 9 27 -5 38 -9 7 -24 13
-32 13 -8 0 -33 16 -54 36 -149 137 -375 230 -579 238 -157 6 -294 -24 -444
-95 -79 -38 -200 -125 -255 -185 -75 -81 -108 -121 -114 -136 -6 -21 -25 -23
-42 -6 -24 24 122 195 248 288 70 53 218 125 295 146 113 29 162 35 275 34 52
-1 106 -2 120 -4 84 -9 124 -21 147 -42 28 -26 33 -27 57 -18 24 9 21 61 -4
69 -11 3 -27 2 -36 -3 -10 -6 -37 -4 -72 5 -86 22 -312 26 -397 7 -38 -8 -79
-17 -89 -19 -76 -16 -238 -96 -320 -157 -71 -53 -172 -154 -209 -208 -52 -78
-56 -81 -77 -63 -17 15 -16 18 18 67 53 77 197 216 282 272 79 53 208 112 300
137 221 61 442 49 660 -34 130 -50 290 -154 290 -189 0 -34 54 -41 71 -9 13
25 -3 47 -38 53 -12 3 -55 27 -95 55 -122 83 -269 144 -423 177 -35 7 -298 13
-335 7z m465 -133 c-3 -5 -11 -10 -16 -10 -6 0 -7 5 -4 10 3 6 11 10 16 10 6
0 7 -4 4 -10z m405 -140 c0 -5 -4 -10 -10 -10 -5 0 -10 5 -10 10 0 6 5 10 10
10 6 0 10 -4 10 -10z m-35 -190 c3 -5 -1 -10 -10 -10 -9 0 -13 5 -10 10 3 6 8
10 10 10 2 0 7 -4 10 -10z m-1665 -620 c0 -5 -2 -10 -4 -10 -3 0 -8 5 -11 10
-3 6 -1 10 4 10 6 0 11 -4 11 -10z"/>
<path d="M3252 3678 c-27 -27 3 -77 40 -63 34 13 188 -118 277 -236 34 -44 61
-86 61 -92 0 -7 -14 -20 -30 -29 l-30 -17 19 -35 c33 -58 78 -196 90 -276 32
-205 -14 -429 -126 -609 -61 -97 -187 -224 -284 -284 -100 -62 -225 -108 -272
-100 -44 7 -65 -21 -41 -55 15 -22 40 -21 60 4 6 7 47 26 91 42 138 51 225
105 336 211 185 176 288 442 274 701 -7 111 -36 232 -82 335 -24 54 -24 58 -8
70 10 7 21 11 24 9 12 -7 68 -148 83 -209 48 -181 39 -413 -20 -575 -57 -153
-205 -370 -254 -370 -45 0 -55 -72 -11 -78 23 -4 42 15 47 46 1 7 25 37 52 67
85 93 197 300 217 401 33 172 38 312 15 429 -6 28 -12 61 -15 74 -8 43 -37
125 -61 173 -29 57 -29 60 -4 76 18 11 21 8 41 -35 49 -107 86 -233 96 -323
11 -95 7 -256 -6 -325 -53 -267 -209 -510 -426 -667 -85 -61 -213 -121 -255
-120 -43 2 -65 -17 -55 -47 10 -33 44 -37 69 -8 11 14 60 44 108 66 469 221
716 797 552 1288 -28 84 -86 213 -96 213 -5 0 -23 -7 -41 -16 -22 -12 -32 -13
-35 -5 -19 57 -203 255 -287 308 -23 14 -46 35 -51 47 -11 24 -44 32 -62 14z
m38 -28 c0 -5 -4 -10 -10 -10 -5 0 -10 5 -10 10 0 6 5 10 10 10 6 0 10 -4 10
-10z m180 -1584 c0 -3 -4 -8 -10 -11 -5 -3 -10 -1 -10 4 0 6 5 11 10 11 6 0
10 -2 10 -4z m-480 -166 c0 -5 -2 -10 -4 -10 -3 0 -8 5 -11 10 -3 6 -1 10 4
10 6 0 11 -4 11 -10z m150 -120 c0 -5 -4 -10 -10 -10 -5 0 -10 5 -10 10 0 6 5
10 10 10 6 0 10 -4 10 -10z"/>
<path d="M2269 3163 c-16 -19 2 -51 44 -81 29 -20 33 -21 44 -6 6 9 10 21 7
28 -3 8 13 11 53 11 l58 -1 0 -283 1 -283 -24 -9 c-33 -13 -25 -42 13 -49 17
-3 48 -3 70 0 47 6 57 30 23 52 l-23 15 1 269 c1 148 2 274 3 279 0 6 26 10
56 11 50 1 55 -1 55 -22 0 -37 27 -36 65 4 32 34 46 70 28 74 -5 0 -110 2
-235 3 -185 2 -230 0 -239 -12z"/>
<path d="M2782 3172 c-19 -6 -14 -40 8 -47 19 -6 20 -15 20 -134 0 -87 -4
-131 -12 -139 -10 -10 -10 -17 0 -32 8 -13 12 -63 12 -144 0 -122 0 -124 -26
-141 -23 -15 -25 -19 -12 -32 18 -17 123 -22 139 -6 13 13 1 41 -19 45 -15 3
-17 20 -17 131 l-1 127 68 1 c37 0 102 0 143 0 41 0 84 0 94 0 18 -1 20 -9 19
-127 0 -115 -2 -127 -19 -131 -12 -3 -19 -14 -19 -29 0 -20 5 -24 33 -25 105
-3 135 12 92 46 -24 20 -25 25 -25 138 0 89 4 123 15 141 14 21 14 24 0 36
-12 10 -15 38 -15 140 0 126 0 127 25 138 53 24 21 50 -60 48 -53 -1 -60 -3
-63 -23 -2 -14 3 -23 17 -28 19 -6 20 -14 18 -133 l-2 -127 -160 0 -160 0 -1
127 c-1 122 0 127 22 137 16 7 21 16 17 30 -4 17 -13 20 -62 19 -31 -1 -62 -3
-69 -6z"/>
<path d="M1906 3098 c-11 -15 -12 -26 -6 -39 7 -12 5 -39 -5 -81 -66 -284 36
-622 250 -833 104 -102 194 -160 332 -213 70 -27 242 -66 269 -61 24 4 34 -3
30 -23 -3 -25 -22 -27 -126 -13 -323 43 -617 272 -749 584 -39 91 -49 135 -37
154 8 12 8 22 0 34 -17 27 -51 28 -64 3 -10 -18 -8 -26 8 -43 11 -12 28 -49
38 -81 23 -77 95 -216 147 -286 51 -69 204 -220 223 -220 3 0 26 -14 50 -31
109 -75 280 -133 430 -147 75 -7 79 -8 79 -32 0 -20 -5 -25 -25 -24 -52 1
-151 15 -207 30 -60 16 -234 82 -243 93 -3 3 -21 15 -40 25 -154 85 -316 260
-399 431 -84 172 -115 318 -109 506 3 116 6 130 26 149 13 13 19 26 15 38 -13
34 -42 41 -66 17 -15 -14 -12 -55 3 -55 4 0 4 -19 -1 -42 -4 -24 -7 -104 -5
-178 6 -215 66 -401 188 -577 176 -255 477 -435 768 -459 40 -3 80 -7 90 -9
26 -5 35 7 35 45 0 33 2 34 40 37 38 3 173 21 205 28 30 7 126 43 175 66 27
13 62 22 76 20 29 -3 45 22 33 52 -12 33 -58 31 -69 -4 -10 -31 -170 -101
-263 -115 -15 -2 -38 -6 -52 -9 -14 -3 -52 -6 -85 -8 l-60 -2 0 35 0 35 -75 7
c-178 17 -360 90 -497 201 -44 36 -91 80 -103 98 -13 17 -32 41 -44 54 -32 35
-85 127 -112 195 -58 142 -81 303 -63 445 13 103 19 124 41 144 25 24 20 61
-9 72 -17 6 -26 3 -37 -13z m44 -22 c0 -11 -19 -15 -25 -6 -3 5 1 10 9 10 9 0
16 -2 16 -4z m-185 -66 c3 -5 -1 -10 -9 -10 -9 0 -16 5 -16 10 0 6 4 10 9 10
6 0 13 -4 16 -10z m75 -420 c0 -5 -4 -10 -10 -10 -5 0 -10 5 -10 10 0 6 5 10
10 10 6 0 10 -4 10 -10z m1470 -640 c0 -5 -4 -10 -10 -10 -5 0 -10 5 -10 10 0
6 5 10 10 10 6 0 10 -4 10 -10z"/>
<path d="M1613 2590 c-35 -14 -40 -50 -11 -75 15 -13 35 -50 48 -91 113 -344
376 -622 712 -755 169 -67 392 -95 573 -74 120 15 274 61 387 116 47 23 48 23
63 3 8 -10 15 -25 15 -31 1 -32 -243 -120 -410 -148 -85 -14 -341 -14 -405 0
-274 59 -445 142 -636 306 -54 47 -69 66 -69 87 0 34 -16 52 -46 52 -27 0 -55
-35 -47 -59 8 -22 33 -41 56 -41 11 0 41 -21 67 -46 72 -70 200 -157 311 -213
55 -28 101 -50 104 -50 3 0 42 -12 88 -25 117 -36 257 -58 367 -59 90 0 216 9
229 17 3 2 24 7 46 10 68 11 176 46 274 89 90 39 94 40 107 22 24 -32 16 -43
-53 -76 -83 -38 -193 -80 -193 -73 0 2 -8 0 -17 -5 -10 -5 -31 -12 -48 -15
-16 -3 -51 -10 -76 -15 -92 -19 -318 -29 -399 -17 -14 2 -47 7 -75 11 -209 30
-410 116 -603 258 -116 84 -250 227 -327 345 -81 127 -128 231 -129 291 -1 43
-5 56 -22 68 -20 13 -24 12 -49 -9 -23 -20 -25 -27 -16 -49 5 -15 18 -29 28
-31 11 -4 33 -39 57 -94 57 -131 170 -296 273 -400 269 -273 611 -422 981
-427 92 -1 237 9 264 18 7 2 27 6 43 9 99 16 201 50 316 105 118 56 114 50 85
101 l-24 42 73 49 c135 91 287 242 352 351 15 26 35 48 44 48 20 0 49 31 49
52 0 25 -37 51 -63 44 -26 -6 -42 -42 -31 -70 9 -22 -119 -188 -210 -271 -42
-38 -111 -93 -153 -122 l-76 -53 -24 40 c-13 22 -29 40 -34 40 -5 0 -31 -11
-57 -24 -294 -147 -646 -164 -947 -46 -16 6 -31 11 -33 11 -1 -1 -37 17 -80
40 -277 148 -481 387 -577 673 -19 56 -23 82 -16 89 17 17 13 52 -7 70 -21 19
-19 19 -49 7z m35 -42 c-6 -18 -28 -21 -28 -4 0 9 7 16 16 16 9 0 14 -5 12
-12z m-163 -189 c10 -15 -1 -23 -20 -15 -9 3 -13 10 -10 16 8 13 22 13 30 -1z
m2448 -193 c7 -18 -1 -26 -18 -19 -8 2 -11 11 -8 19 7 18 19 18 26 0z m-2088
-234 c0 -18 -20 -15 -23 4 -3 10 1 15 10 12 7 -3 13 -10 13 -16z"/>
</g>
</svg>
